<?xml version="1.0" encoding="UTF-8" standalone="no"?>
<!-- Created with Inkscape (http://www.inkscape.org/) -->

<svg
   xmlns:dc="http://purl.org/dc/elements/1.1/"
   xmlns:cc="http://creativecommons.org/ns#"
   xmlns:rdf="http://www.w3.org/1999/02/22-rdf-syntax-ns#"
   xmlns:svg="http://www.w3.org/2000/svg"
   xmlns="http://www.w3.org/2000/svg"
   xmlns:sodipodi="http://sodipodi.sourceforge.net/DTD/sodipodi-0.dtd"
   xmlns:inkscape="http://www.inkscape.org/namespaces/inkscape"
   id="svg12331"
   version="1.1"
   inkscape:version="0.48.1 "
   width="672.0625"
   height="625.2875"
   xml:space="preserve"
   sodipodi:docname="texas.pdf"><metadata
     id="metadata12337"><rdf:RDF><cc:Work
         rdf:about=""><dc:format>image/svg+xml</dc:format><dc:type
           rdf:resource="http://purl.org/dc/dcmitype/StillImage" /><dc:title></dc:title></cc:Work></rdf:RDF></metadata><defs
     id="defs12335" /><sodipodi:namedview
     pagecolor="#ffffff"
     bordercolor="#666666"
     borderopacity="1"
     objecttolerance="10"
     gridtolerance="10"
     guidetolerance="10"
     inkscape:pageopacity="0"
     inkscape:pageshadow="2"
     inkscape:window-width="640"
     inkscape:window-height="480"
     id="namedview12333"
     showgrid="false"
     inkscape:zoom="0.46538594"
     inkscape:cx="336.03125"
     inkscape:cy="312.64374"
     inkscape:window-x="656"
     inkscape:window-y="126"
     inkscape:window-maximized="0"
     inkscape:current-layer="g12339" /><g
     id="g12339"
     inkscape:groupmode="layer"
     inkscape:label="texas"
     transform="matrix(1.25,0,0,-1.25,0,625.2875)"><g
       id="g12341"
       transform="scale(0.24,0.24)"><path
         d="m 705.922,1273.57 49.824,808.58 180.625,-6.24 283.399,-3.13 0,-380.87 12.45,-6.25 18.69,-3.12 12.46,-18.73 6.22,-6.24 12.46,12.48 12.46,0 21.8,-24.97 6.23,-9.37 6.23,-15.6 9.34,-15.62 9.34,0 18.69,6.25 21.8,-6.25 31.14,0 12.46,-9.36 0,-3.12 6.23,-9.37 24.91,0 24.91,6.25 6.23,0 9.34,-12.49 12.46,-15.61 21.8,-3.12 24.92,6.24 12.45,-6.24 6.23,-9.37 21.8,3.12 12.46,-18.73 6.22,-9.37 12.46,0 6.23,6.25 12.46,15.61 9.34,12.49 12.46,-6.25 12.45,-6.24 9.35,18.73 18.68,6.24 15.57,0 15.57,-9.36 12.46,-24.98 15.57,-12.49 28.03,6.25 9.34,0 15.57,9.36 9.35,9.37 21.79,18.73 37.38,9.37 31.14,-6.25 21.8,3.12 34.26,-9.36 31.14,-9.37 49.83,-18.73 37.37,-15.61 15.57,0 24.91,-6.24 18.69,3.12 15.57,-384 18.68,-18.73 18.69,-15.61 12.45,-15.61 6.23,-21.85 -12.45,-12.49 6.22,-12.49 12.47,-15.6 0,-21.86 -12.47,-37.461 -9.34,-18.731 0,-28.097 12.46,-21.856 -6.23,-24.972 -3.11,-18.735 0,-24.972 6.22,-18.735 -12.45,-24.976 -43.6,0 -87.2,-43.703 -21.8,-24.977 -6.23,0 -6.22,15.609 28.02,18.731 0,15.613 -24.91,-6.246 -15.57,0 0,28.094 -12.46,6.246 -37.37,-6.246 -21.8,-18.727 12.46,-28.097 21.79,-9.368 12.47,-12.488 -3.12,-15.609 -34.26,-40.582 -12.45,-53.078 -31.14,-28.098 -52.94,-34.336 -59.18,-34.344 37.37,43.707 -6.23,18.735 -46.71,-9.368 -18.68,0 -15.57,12.485 9.33,15.609 -12.45,-12.488 -40.49,-6.238 -15.57,18.726 -18.68,-9.367 0,-9.359 31.14,-21.856 15.57,0 0,-21.855 -31.14,-37.465 -9.34,-6.242 -9.35,9.367 0,6.242 -15.57,-6.242 3.12,-28.098 6.23,-3.121 -28.03,-37.465 -18.69,0 0,40.586 -6.23,-6.242 0,-21.855 -40.48,-6.243 9.34,-15.609 28.03,0 -6.23,-34.344 -52.94,0 -18.69,-3.117 6.23,-9.367 24.92,-3.121 9.34,-18.735 3.11,-31.218 -18.68,-12.489 -34.26,-3.125 0,-15.609 12.46,-3.121 6.23,-40.582 12.46,-78.047 37.36,-103.0235 -6.23,-9.3672 -6.22,0 6.22,-3.121 12.46,-12.4883 12.46,-21.8555 0,-9.36719 -52.94,18.73439 -56.06,21.8516 -34.25,12.4882 -28.03,3.125 -24.91,6.2422 -31.15,21.8516 -18.69,21.8557 -28.02,9.363 -37.37,28.102 -31.15,31.218 -15.57,40.582 -24.91,71.805 -21.8,28.098 -34.26,34.343 -24.91,46.825 -18.69,68.687 -24.91,31.215 -34.26,56.195 -31.14,62.438 -9.34,49.949 -21.8,31.223 -37.374,37.465 -24.914,15.609 -34.258,9.367 -12.457,18.727 -43.598,15.609 -80.968,0 -43.602,9.367 -28.027,0 -12.457,-9.367 -24.914,-62.437 -3.114,-9.364 -31.14,-49.953 -24.914,-24.972 -9.344,-3.122 -46.715,28.094 -24.914,15.61 -18.684,0 -49.828,12.488 -71.625,15.609 -112.117,53.071 -28.023,28.101 -21.801,62.434 -28.031,31.222 -18.684,28.098 -12.457,65.559 -31.141,43.708 -28.031,15.61 -28.0272,49.95 -31.1406,28.1 -12.4571,31.22 -34.2578,37.46 -9.33983,28.1 3.10937,53.07 700.70716,0 0,0 z"
         style="fill:none;stroke:#231f20;stroke-opacity:1;stroke-width:4.16667;stroke-linecap:butt;stroke-linejoin:miter;stroke-miterlimit:4;stroke-dasharray:none"
         id="path12343" /><path
         d="m 705.922,1273.57 49.824,808.58 180.625,-6.24 283.399,-3.13 0,-380.87 12.45,-6.25 18.69,-3.12 12.46,-18.73 6.22,-6.24 12.46,12.48 12.46,0 21.8,-24.97 6.23,-9.37 6.23,-15.6 9.34,-15.62 9.34,0 18.69,6.25 21.8,-6.25 31.14,0 12.46,-9.36 0,-3.12 6.23,-9.37 24.91,0 24.91,6.25 6.23,0 9.34,-12.49 12.46,-15.61 21.8,-3.12 24.92,6.24 12.45,-6.24 6.23,-9.37 21.8,3.12 12.46,-18.73 6.22,-9.37 12.46,0 6.23,6.25 12.46,15.61 9.34,12.49 12.46,-6.25 12.45,-6.24 9.35,18.73 18.68,6.24 15.57,0 15.57,-9.36 12.46,-24.98 15.57,-12.49 28.03,6.25 9.34,0 15.57,9.36 9.35,9.37 21.79,18.73 37.38,9.37 31.14,-6.25 21.8,3.12 34.26,-9.36 31.14,-9.37 49.83,-18.73 37.37,-15.61 15.57,0 24.91,-6.24 18.69,3.12 15.57,-384 18.68,-18.73 18.69,-15.61 12.45,-15.61 6.23,-21.85 -12.45,-12.49 6.22,-12.49 12.47,-15.6 0,-21.86 -12.47,-37.461 -9.34,-18.731 0,-28.097 12.46,-21.856 -6.23,-24.972 -3.11,-18.735 0,-24.972 6.22,-18.735 -12.45,-24.976 -43.6,0 -87.2,-43.703 -21.8,-24.977 -6.23,0 -6.22,15.609 28.02,18.731 0,15.613 -24.91,-6.246 -15.57,0 0,28.094 -12.46,6.246 -37.37,-6.246 -21.8,-18.727 12.46,-28.097 21.79,-9.368 12.47,-12.488 -3.12,-15.609 -34.26,-40.582 -12.45,-53.078 -31.14,-28.098 -52.94,-34.336 -59.18,-34.344 37.37,43.707 -6.23,18.735 -46.71,-9.368 -18.68,0 -15.57,12.485 9.33,15.609 -12.45,-12.488 -40.49,-6.238 -15.57,18.726 -18.68,-9.367 0,-9.359 31.14,-21.856 15.57,0 0,-21.855 -31.14,-37.465 -9.34,-6.242 -9.35,9.367 0,6.242 -15.57,-6.242 3.12,-28.098 6.23,-3.121 -28.03,-37.465 -18.69,0 0,40.586 -6.23,-6.242 0,-21.855 -40.48,-6.243 9.34,-15.609 28.03,0 -6.23,-34.344 -52.94,0 -18.69,-3.117 6.23,-9.367 24.92,-3.121 9.34,-18.735 3.11,-31.218 -18.68,-12.489 -34.26,-3.125 0,-15.609 12.46,-3.121 6.23,-40.582 12.46,-78.047 37.36,-103.0235 -6.23,-9.3672 -6.22,0 6.22,-3.121 12.46,-12.4883 12.46,-21.8555 0,-9.36719 -52.94,18.73439 -56.06,21.8516 -34.25,12.4882 -28.03,3.125 -24.91,6.2422 -31.15,21.8516 -18.69,21.8557 -28.02,9.363 -37.37,28.102 -31.15,31.218 -15.57,40.582 -24.91,71.805 -21.8,28.098 -34.26,34.343 -24.91,46.825 -18.69,68.687 -24.91,31.215 -34.26,56.195 -31.14,62.438 -9.34,49.949 -21.8,31.223 -37.374,37.465 -24.914,15.609 -34.258,9.367 -12.457,18.727 -43.598,15.609 -80.968,0 -43.602,9.367 -28.027,0 -12.457,-9.367 -24.914,-62.437 -3.114,-9.364 -31.14,-49.953 -24.914,-24.972 -9.344,-3.122 -46.715,28.094 -24.914,15.61 -18.684,0 -49.828,12.488 -71.625,15.609 -112.117,53.071 -28.023,28.101 -21.801,62.434 -28.031,31.222 -18.684,28.098 -12.457,65.559 -31.141,43.708 -28.031,15.61 -28.0272,49.95 -31.1406,28.1 -12.4571,31.22 -34.2578,37.46 -9.33983,28.1 3.10937,53.07 700.70716,0 0,0 z"
         style="fill:none;stroke:none"
         id="path12345" /><path
         d="m 1789.68,493.09 -21.8,-9.367 -24.92,-18.731 -21.8,-24.976 -9.34,-15.61 0,-3.121 12.45,9.367 12.46,15.61 18.69,21.855 15.57,12.485 15.57,6.242 6.23,9.367 -3.11,-3.121 0,0 z"
         style="fill:none;stroke:#231f20;stroke-opacity:1;stroke-width:4.16667;stroke-linecap:butt;stroke-linejoin:miter;stroke-miterlimit:4;stroke-dasharray:none"
         id="path12347" /><path
         d="m 1789.68,493.09 -21.8,-9.367 -24.92,-18.731 -21.8,-24.976 -9.34,-15.61 0,-3.121 12.45,9.367 12.46,15.61 18.69,21.855 15.57,12.485 15.57,6.242 6.23,9.367 -3.11,-3.121 0,0 z"
         style="fill:none;stroke:none"
         id="path12349" /><path
         d="m 1690.02,402.555 -21.8,-34.34 -15.57,-18.735 -6.23,-15.609 3.12,0 9.34,6.246 21.8,34.34 9.34,12.484 9.34,12.489 0,6.246 -6.23,0 -3.11,-3.121 0,0 z"
         style="fill:none;stroke:#231f20;stroke-opacity:1;stroke-width:4.16667;stroke-linecap:butt;stroke-linejoin:miter;stroke-miterlimit:4;stroke-dasharray:none"
         id="path12351" /><path
         d="m 1690.02,402.555 -21.8,-34.34 -15.57,-18.735 -6.23,-15.609 3.12,0 9.34,6.246 21.8,34.34 9.34,12.484 9.34,12.489 0,6.246 -6.23,0 -3.11,-3.121 0,0 z"
         style="fill:none;stroke:none"
         id="path12353" /><path
         d="m 1637.07,315.141 -15.57,-28.098 -12.45,-34.34 -3.12,-43.711 3.12,-59.312 12.45,-46.832 15.57,-28.0941 9.35,-24.9766 3.12,-6.246 0,18.7343 -12.47,31.2149 -12.45,34.3435 -9.34,49.953 0,34.34 6.22,43.707 12.46,31.219 6.23,15.609 6.23,9.364 0,3.125 -3.12,3.121 -6.23,-3.121 0,0 z"
         style="fill:none;stroke:#231f20;stroke-opacity:1;stroke-width:4.16667;stroke-linecap:butt;stroke-linejoin:miter;stroke-miterlimit:4;stroke-dasharray:none"
         id="path12355" /><path
         d="m 1637.07,315.141 -15.57,-28.098 -12.45,-34.34 -3.12,-43.711 3.12,-59.312 12.45,-46.832 15.57,-28.0941 9.35,-24.9766 3.12,-6.246 0,18.7343 -12.47,31.2149 -12.45,34.3435 -9.34,49.953 0,34.34 6.22,43.707 12.46,31.219 6.23,15.609 6.23,9.364 0,3.125 -3.12,3.121 -6.23,-3.121 0,0 z"
         style="fill:none;stroke:none"
         id="path12357" /></g></g></svg>